<svg width="62" height="62" viewBox="0 0 62 62" fill="none" xmlns="http://www.w3.org/2000/svg">
<path d="M31.5 54.0002C44.4787 54.0002 55 43.7028 55 31.0002C55 18.2977 44.4787 8.00024 31.5 8.00024C18.5213 8.00024 8 18.2977 8 31.0002C8 43.7028 18.5213 54.0002 31.5 54.0002Z" fill="#CCEFDC"/>
<path fill-rule="evenodd" clip-rule="evenodd" d="M41.1995 33.6186C39.7709 33.6186 38.6033 32.4638 38.6033 31.0352C38.6033 29.6067 39.7477 28.4519 41.1737 28.4519H41.1995C42.6281 28.4519 43.7829 29.6067 43.7829 31.0352C43.7829 32.4638 42.6281 33.6186 41.1995 33.6186Z" fill="#130F26"/>
<path fill-rule="evenodd" clip-rule="evenodd" d="M31.8411 33.6186C30.4126 33.6186 29.2475 32.4638 29.2475 31.0352C29.2475 29.6067 30.3893 28.4519 31.8179 28.4519H31.8411C33.2697 28.4519 34.4245 29.6067 34.4245 31.0352C34.4245 32.4638 33.2697 33.6186 31.8411 33.6186Z" fill="#130F26"/>
<path fill-rule="evenodd" clip-rule="evenodd" d="M22.4851 33.6186C21.0565 33.6186 19.8888 32.4638 19.8888 31.0352C19.8888 29.6067 21.0332 28.4519 22.4618 28.4519H22.4851C23.9137 28.4519 25.0684 29.6067 25.0684 31.0352C25.0684 32.4638 23.9137 33.6186 22.4851 33.6186Z" fill="#130F26"/>
</svg>
