<svg width="44" height="37" viewBox="0 0 44 37" fill="none" xmlns="http://www.w3.org/2000/svg">
<ellipse cx="22.5" cy="35.5" rx="21.5" ry="1.5" fill="#B3E2C4"/>
<path d="M4.91289 16.1031L3.34284 20.3563C3.15915 20.8539 3.53073 21.4254 3.73948 21.6489C6.19644 23.4093 11.4525 27.108 12.8209 27.8195C14.1893 28.5311 15.4954 28.7274 15.9775 28.7367L19.4811 27.6615L27.3643 25.2426L34.3717 23.0923C36.4739 22.4473 36.9664 20.0961 36.9498 19.0012L32.8513 5.64435C31.6878 1.85274 28.681 1.42392 27.3231 1.68346L10.2428 6.92461C8.05298 7.59655 5.85767 13.456 4.91289 16.1031Z" fill="#E48A3D"/>
<path d="M6.7459 15.6071L5.17115 19.909C4.98691 20.4124 5.35866 20.996 5.56756 21.225C8.02686 23.0358 13.2879 26.8415 14.6578 27.5771C16.0277 28.3127 17.3355 28.5248 17.8182 28.5388L21.3273 27.4817L29.2229 25.1033L36.2411 22.9891C38.3466 22.3548 38.8412 19.9731 38.8253 18.8615L34.7291 5.26359C33.5662 1.40354 30.5556 0.93893 29.1956 1.18913L12.0886 6.34249C9.8954 7.00317 7.69356 12.9294 6.7459 15.6071Z" fill="#E7A163"/>
<path d="M5.02363 17.9998L2.02363 21.9998C1.67265 22.4677 1.87739 23.1947 2.02363 23.4998C4.02363 26.1664 8.32363 31.7998 9.52363 32.9998C10.7236 34.1998 12.0236 34.8331 12.5236 34.9998H16.5236H25.5236H33.5236C35.9236 34.9998 37.1903 32.6664 37.5236 31.4998V15.9998C37.5236 11.5998 34.5236 10.1664 33.0236 9.99976H13.5236C11.0236 9.99976 6.85697 15.4998 5.02363 17.9998Z" fill="url(#paint0_linear_21_1390)"/>
<path d="M7.82984 17.9998L4.82984 21.9998C4.47886 22.4677 4.6836 23.1947 4.82984 23.4998C6.82984 26.1664 11.1298 31.7998 12.3298 32.9998C13.5298 34.1998 14.8298 34.8331 15.3298 34.9998H19.3298H28.3298H36.3298C38.7298 34.9998 39.9965 32.6664 40.3298 31.4998V15.9998C40.3298 11.5998 37.3298 10.1664 35.8298 9.99976H16.3298C13.8298 9.99976 9.66318 15.4998 7.82984 17.9998Z" fill="url(#paint1_linear_21_1390)"/>
<circle cx="12.8298" cy="22.9998" r="3" fill="#D3EEDD"/>
<path d="M15.8298 23C15.8298 24.6569 14.4867 26 12.8298 26C11.173 26 9.82983 24.6569 9.82983 23C9.82983 21.3431 11.173 20 12.8298 20C14.4867 20 15.8298 21.3431 15.8298 23ZM11.3827 23C11.3827 23.7992 12.0306 24.4471 12.8298 24.4471C13.6291 24.4471 14.2769 23.7992 14.2769 23C14.2769 22.2008 13.6291 21.5529 12.8298 21.5529C12.0306 21.5529 11.3827 22.2008 11.3827 23Z" fill="#2C6935"/>
<g filter="url(#filter0_d_21_1390)">
<path d="M30.8298 16.5L23.3298 28H25.3298L32.8298 16.5H30.8298Z" fill="white"/>
<path d="M22.8298 17C23.2729 17 23.7503 17.2371 24.1511 17.7715C24.5522 18.3062 24.8298 19.0909 24.8298 20C24.8298 20.9091 24.5522 21.6938 24.1511 22.2285C23.7503 22.7629 23.2729 23 22.8298 23C22.3868 23 21.9094 22.7629 21.5085 22.2285C21.1075 21.6938 20.8298 20.9091 20.8298 20C20.8298 19.0909 21.1075 18.3062 21.5085 17.7715C21.9094 17.2371 22.3868 17 22.8298 17Z" stroke="white" stroke-width="2"/>
<path d="M32.8298 22C33.2729 22 33.7503 22.2371 34.1511 22.7715C34.5522 23.3062 34.8298 24.0909 34.8298 25C34.8298 25.9091 34.5522 26.6938 34.1511 27.2285C33.7503 27.7629 33.2729 28 32.8298 28C32.3868 28 31.9094 27.7629 31.5085 27.2285C31.1075 26.6938 30.8298 25.9091 30.8298 25C30.8298 24.0909 31.1075 23.3062 31.5085 22.7715C31.9094 22.2371 32.3868 22 32.8298 22Z" stroke="white" stroke-width="2"/>
</g>
<defs>
<filter id="filter0_d_21_1390" x="18.8298" y="16" width="17" height="13" filterUnits="userSpaceOnUse" color-interpolation-filters="sRGB">
<feFlood flood-opacity="0" result="BackgroundImageFix"/>
<feColorMatrix in="SourceAlpha" type="matrix" values="0 0 0 0 0 0 0 0 0 0 0 0 0 0 0 0 0 0 127 0" result="hardAlpha"/>
<feOffset dx="-1"/>
<feComposite in2="hardAlpha" operator="out"/>
<feColorMatrix type="matrix" values="0 0 0 0 0 0 0 0 0 0 0 0 0 0 0 0 0 0 0.25 0"/>
<feBlend mode="normal" in2="BackgroundImageFix" result="effect1_dropShadow_21_1390"/>
<feBlend mode="normal" in="SourceGraphic" in2="effect1_dropShadow_21_1390" result="shape"/>
</filter>
<linearGradient id="paint0_linear_21_1390" x1="19.6767" y1="9.99976" x2="19.6767" y2="34.9998" gradientUnits="userSpaceOnUse">
<stop offset="0.519975" stop-color="#3B8B47"/>
<stop offset="0.520276" stop-color="#2C6835"/>
</linearGradient>
<linearGradient id="paint1_linear_21_1390" x1="22.4829" y1="9.99976" x2="22.4829" y2="34.9998" gradientUnits="userSpaceOnUse">
<stop offset="0.512611" stop-color="#4FAE5A"/>
<stop offset="0.514379" stop-color="#3E8B48"/>
</linearGradient>
</defs>
</svg>
