<svg width="22" height="22" viewBox="0 0 22 22" fill="none" xmlns="http://www.w3.org/2000/svg">
<path fill-rule="evenodd" clip-rule="evenodd" d="M1.66279 2.76493V6.78664H0.154643V2.76493C0.154643 1.2379 1.39254 0 2.91957 0H6.94128V1.50814H2.91957C2.22547 1.50814 1.66279 2.07082 1.66279 2.76493ZM0 10.8084C0 10.3919 0.337609 10.0543 0.754071 10.0543H21.2459C21.6624 10.0543 22 10.3919 22 10.8084C22 11.2248 21.6624 11.5624 21.2459 11.5624H0.754071C0.337609 11.5624 0 11.2248 0 10.8084ZM1.66279 14.8301V18.8518C1.66279 19.5459 2.22547 20.1086 2.91957 20.1086H6.94128V21.6167H2.91957C1.39254 21.6167 0.154643 20.3788 0.154643 18.8518V14.8301H1.66279ZM20.2632 6.78664V2.76493C20.2632 2.07082 19.7005 1.50814 19.0064 1.50814H14.9847V0H19.0064C20.5334 0 21.7713 1.2379 21.7713 2.76493V6.78664H20.2632ZM20.2632 18.8518V14.8301H21.7713V18.8518C21.7713 20.3788 20.5334 21.6167 19.0064 21.6167H14.9847V20.1086H19.0064C19.7005 20.1086 20.2632 19.5459 20.2632 18.8518Z" fill="#707070"/>
</svg>
