<svg width="21" height="21" viewBox="0 0 21 21" fill="none" xmlns="http://www.w3.org/2000/svg">
<path fill-rule="evenodd" clip-rule="evenodd" d="M14.7422 13.4796C15.8866 12.059 16.5716 10.2526 16.5716 8.28581C16.5716 3.7095 12.8619 0 8.28581 0C3.70969 0 0 3.7095 0 8.28581C0 12.8621 3.70969 16.5716 8.28581 16.5716C10.2476 16.5716 12.0502 15.8899 13.4695 14.7505L19.4525 20.7363C19.8035 21.0877 20.3728 21.0877 20.7241 20.7368C21.0754 20.3858 21.0755 19.8163 20.7244 19.4649L14.7422 13.4796ZM8.28581 14.9806C4.58826 14.9806 1.59082 11.9832 1.59082 8.28581C1.59082 4.58845 4.58826 1.59101 8.28581 1.59101C11.9834 1.59101 14.9808 4.58845 14.9808 8.28581C14.9808 11.9832 11.9834 14.9806 8.28581 14.9806Z" fill="#707070"/>
</svg>
