<svg width="22" height="21" viewBox="0 0 22 21" fill="none" xmlns="http://www.w3.org/2000/svg">
<path d="M4.80283 0.671259H3.76997C2.1954 0.671259 1.32095 1.27135 0.917897 1.78542C0.712407 2.04751 0.671385 2.38923 0.671385 2.72228C0.671385 4.28194 0.671385 7.08884 0.671385 8.93415C0.671385 10.9999 3.76997 10.4834 4.2864 10.4834H4.80283M4.80283 0.671259C8.93428 0.671259 17.6103 0.671259 19.2629 0.671259C20.9155 0.671259 21.3286 1.70412 21.3286 2.22055C21.3286 7.21272 21.3286 17.5069 21.3286 18.7463C21.3286 19.9858 20.2958 20.2956 19.7793 20.2956C15.82 20.2956 7.59156 20.2956 6.35212 20.2956C5.11269 20.2956 4.80283 19.2628 4.80283 18.7463V10.4834M4.80283 0.671259V10.4834" stroke="#9A9A9A" stroke-width="1.3"/>
<path d="M8.41785 6.352H17.1852" stroke="#9A9A9A" stroke-width="1.3" stroke-linecap="round"/>
<path d="M8.41785 10.4834H17.4" stroke="#9A9A9A" stroke-width="1.3" stroke-linecap="round"/>
<path d="M8.41785 14.6149H13.7766" stroke="#9A9A9A" stroke-width="1.3" stroke-linecap="round"/>
</svg>
