<svg width="22" height="21" viewBox="0 0 22 21" fill="none" xmlns="http://www.w3.org/2000/svg">
<path d="M0.671385 3.76984V17.7213C0.671385 18.0591 0.701437 18.4011 0.846063 18.7064C1.18033 19.4119 1.92973 20.2956 3.25354 20.2956C4.90612 20.2956 14.2707 20.2956 18.7465 20.2956C19.6072 20.2956 21.3286 19.8825 21.3286 18.2299C21.3286 16.6544 21.3286 9.94722 21.3286 6.34167C21.3286 6.00388 21.2965 5.66603 21.1659 5.35451C20.8703 4.64971 20.2536 3.76984 19.2629 3.76984C19.1567 3.76984 18.9814 3.76984 18.7465 3.76984M0.671385 3.76984V2.73698C0.671385 1.59611 1.59624 0.671259 2.73711 0.671259H3.76997H16.0023C17.098 0.671259 18.1961 1.1188 18.5145 2.16724C18.6515 2.61842 18.7465 3.15615 18.7465 3.76984M0.671385 3.76984H2.22068C6.94238 3.76984 16.2401 3.76984 18.7465 3.76984" stroke="#9A9A9A" stroke-width="1.3"/>
<path d="M19.2629 11.7745C19.2629 13.058 18.2224 14.0985 16.939 14.0985C15.6555 14.0985 14.615 13.058 14.615 11.7745C14.615 10.491 15.6555 9.45058 16.939 9.45058C18.2224 9.45058 19.2629 10.491 19.2629 11.7745ZM15.9248 11.7745C15.9248 12.3346 16.3789 12.7887 16.939 12.7887C17.4991 12.7887 17.9531 12.3346 17.9531 11.7745C17.9531 11.2144 17.4991 10.7604 16.939 10.7604C16.3789 10.7604 15.9248 11.2144 15.9248 11.7745Z" fill="#9A9A9A"/>
</svg>
